<svg width="22" height="24" viewBox="0 0 22 24" fill="none" xmlns="http://www.w3.org/2000/svg">
<path d="M11 0C6.7595 0 3.3 3.43091 3.3 7.63636C3.3 10.2655 4.653 12.6 6.7034 13.9778C2.7797 15.6469 0 19.5087 0 24H2.2C2.2 19.1673 6.127 15.2727 11 15.2727C15.873 15.2727 19.8 19.1673 19.8 24H22C22 19.5087 19.2203 15.648 15.2966 13.9767C16.3434 13.2764 17.201 12.3322 17.7943 11.2268C18.3877 10.1214 18.6986 8.88861 18.7 7.63636C18.7 3.43091 15.2405 0 11 0ZM11 2.18182C14.0503 2.18182 16.5 4.61127 16.5 7.63636C16.5 10.6615 14.0503 13.0909 11 13.0909C7.9497 13.0909 5.5 10.6615 5.5 7.63636C5.5 4.61127 7.9497 2.18182 11 2.18182Z" fill="black"/>
</svg>
