<svg width="29" height="24" viewBox="0 0 29 24" fill="none" xmlns="http://www.w3.org/2000/svg">
<path d="M20.9732 0C18.2998 0 15.9591 1.11026 14.5 2.98695C13.0409 1.11026 10.7002 0 8.02679 0C5.89869 0.00231647 3.85844 0.819769 2.35364 2.27302C0.848846 3.72626 0.00239863 5.69663 0 7.75183C0 16.5039 13.4371 23.5881 14.0093 23.8806C14.1602 23.959 14.3287 24 14.5 24C14.6713 24 14.8398 23.959 14.9907 23.8806C15.5629 23.5881 29 16.5039 29 7.75183C28.9976 5.69663 28.1512 3.72626 26.6464 2.27302C25.1416 0.819769 23.1013 0.00231647 20.9732 0ZM14.5 21.8552C12.136 20.5248 2.07143 14.4647 2.07143 7.75183C2.07348 6.22708 2.70158 4.76536 3.81798 3.6872C4.93438 2.60904 6.44796 2.00246 8.02679 2.00047C10.5449 2.00047 12.659 3.29578 13.542 5.37627C13.62 5.55972 13.7527 5.71663 13.9233 5.82706C14.0939 5.93749 14.2946 5.99645 14.5 5.99645C14.7054 5.99645 14.9061 5.93749 15.0767 5.82706C15.2473 5.71663 15.38 5.55972 15.458 5.37627C16.341 3.29203 18.4551 2.00047 20.9732 2.00047C22.552 2.00246 24.0656 2.60904 25.182 3.6872C26.2984 4.76536 26.9265 6.22708 26.9286 7.75183C26.9286 14.4547 16.8614 20.5236 14.5 21.8552Z" fill="black"/>
</svg>
