<svg width="26" height="26" viewBox="0 0 26 26" fill="none" xmlns="http://www.w3.org/2000/svg">
<path d="M0 0.928373C0 0.682153 0.0978126 0.446017 0.27192 0.271914C0.446027 0.0978101 0.682167 0 0.928392 0H1.74166C3.09155 0 3.86768 0.87824 4.31702 1.75462C4.62339 2.35435 4.84435 3.08591 5.02817 3.72092H24.1438C24.4307 3.721 24.7137 3.78757 24.9705 3.9154C25.2274 4.04323 25.4511 4.22884 25.6242 4.45766C25.7972 4.68649 25.9149 4.95231 25.968 5.23426C26.021 5.5162 26.008 5.80661 25.93 6.0827L23.1522 15.877C22.9313 16.6541 22.4629 17.3379 21.8183 17.8248C21.1736 18.3116 20.3877 18.575 19.5798 18.5749H10.1492C9.33457 18.5752 8.54246 18.3076 7.89489 17.8134C7.24733 17.3191 6.78024 16.6257 6.56559 15.8399L5.37353 11.4673L5.35497 11.4078L3.44248 4.91295L3.2568 4.28722C3.07112 3.64479 2.90772 3.07663 2.66263 2.59944C2.3674 2.02385 2.09631 1.85675 1.74166 1.85675H0.928392C0.682167 1.85675 0.446027 1.75893 0.27192 1.58483C0.0978126 1.41073 0 1.17459 0 0.928373ZM7.14491 10.9065L8.35739 15.3553C8.46488 15.748 8.6985 16.0945 9.02227 16.3415C9.34603 16.5884 9.742 16.722 10.1492 16.7218H19.5816C19.9854 16.7214 20.378 16.5894 20.7 16.3459C21.022 16.1023 21.2558 15.7604 21.366 15.372L24.1438 5.57766H5.57592L7.14491 10.9065ZM13.0031 23.2149C13.0031 23.9535 12.7096 24.6619 12.1873 25.1843C11.665 25.7066 10.9566 26 10.2179 26C9.47921 26 8.77079 25.7066 8.24847 25.1843C7.72615 24.6619 7.43271 23.9535 7.43271 23.2149C7.43271 22.4762 7.72615 21.7678 8.24847 21.2455C8.77079 20.7232 9.47921 20.4298 10.2179 20.4298C10.9566 20.4298 11.665 20.7232 12.1873 21.2455C12.7096 21.7678 13.0031 22.4762 13.0031 23.2149ZM11.1463 23.2149C11.1463 22.9687 11.0485 22.7325 10.8744 22.5584C10.7003 22.3843 10.4641 22.2865 10.2179 22.2865C9.97166 22.2865 9.73552 22.3843 9.56141 22.5584C9.3873 22.7325 9.28949 22.9687 9.28949 23.2149C9.28949 23.4611 9.3873 23.6972 9.56141 23.8713C9.73552 24.0454 9.97166 24.1433 10.2179 24.1433C10.4641 24.1433 10.7003 24.0454 10.8744 23.8713C11.0485 23.6972 11.1463 23.4611 11.1463 23.2149ZM22.287 23.2149C22.287 23.9535 21.9935 24.6619 21.4712 25.1843C20.9489 25.7066 20.2405 26 19.5018 26C18.7631 26 18.0547 25.7066 17.5324 25.1843C17.0101 24.6619 16.7166 23.9535 16.7166 23.2149C16.7166 22.4762 17.0101 21.7678 17.5324 21.2455C18.0547 20.7232 18.7631 20.4298 19.5018 20.4298C20.2405 20.4298 20.9489 20.7232 21.4712 21.2455C21.9935 21.7678 22.287 22.4762 22.287 23.2149ZM20.4302 23.2149C20.4302 22.9687 20.3324 22.7325 20.1583 22.5584C19.9842 22.3843 19.748 22.2865 19.5018 22.2865C19.2556 22.2865 19.0194 22.3843 18.8453 22.5584C18.6712 22.7325 18.5734 22.9687 18.5734 23.2149C18.5734 23.4611 18.6712 23.6972 18.8453 23.8713C19.0194 24.0454 19.2556 24.1433 19.5018 24.1433C19.748 24.1433 19.9842 24.0454 20.1583 23.8713C20.3324 23.6972 20.4302 23.4611 20.4302 23.2149Z" fill="black"/>
</svg>
