<svg width="38" height="48" viewBox="0 0 38 48" fill="none" xmlns="http://www.w3.org/2000/svg">
  <path d="M3.74493 9.02256L5.23188 15.4077L3.74493 21.7652L9.27971 25.2076L12.6667 30.7877L19 29.2886L25.3333 30.7877L28.7203 25.2076L34.2551 21.7652L32.7681 15.4077L34.2551 9.02256L28.7478 5.5801L25.3333 0L19 1.52689L12.6942 0.0277617L9.25217 5.5801L3.74493 9.02256ZM19.0275 26.6235C16.1063 26.6235 13.3047 25.4535 11.2391 23.371C9.1735 21.2885 8.01304 18.4639 8.01304 15.5188C8.01304 12.5737 9.1735 9.74913 11.2391 7.6666C13.3047 5.58407 16.1063 4.41411 19.0275 4.41411C25.0855 4.41411 30.0145 9.38346 30.0145 15.491C30.0145 21.6541 25.0855 26.6235 19.0275 26.6235ZM18.9725 23.8473C14.4014 23.8473 10.7391 20.1272 10.7391 15.5188C10.7391 10.9381 14.4014 7.19028 18.9725 7.19028C23.5435 7.19028 27.2609 10.9381 27.2609 15.5188C27.2609 20.1272 23.5435 23.8473 18.9725 23.8473ZM29.5464 26.9011L26.0217 33.1197L20.2942 31.8149L27.2609 48L31.1159 41.8924H38L29.5464 26.9011ZM8.34348 27.0954L11.7855 33.3418L17.6507 31.926L10.7391 48L6.88406 41.8924H0L8.34348 27.0954Z" fill="white"/>
</svg> 