<svg width="43" height="47" viewBox="0 0 43 47" fill="none" xmlns="http://www.w3.org/2000/svg">
  <path d="M21.5 0C23.4264 0 25.2926 0.2537 27.0685 0.72885L22.4976 5.2976C22.1508 5.64576 21.845 6.0324 21.586 6.45H21.5C18.5234 6.45 15.6136 7.33267 13.1387 8.98638C10.6637 10.6401 8.73471 12.9906 7.59561 15.7406C6.45651 18.4906 6.15847 21.5167 6.73918 24.4361C7.31989 27.3555 8.75326 30.0372 10.858 32.142C12.9628 34.2467 15.6445 35.6801 18.5639 36.2608C21.4833 36.8415 24.5094 36.5435 27.2594 35.4044C30.0094 34.2653 32.3599 32.3363 34.0136 29.8613C35.6673 27.3864 36.55 24.4766 36.55 21.5V21.414C36.9657 21.156 37.3491 20.8514 37.7003 20.5002L42.2711 15.9315C42.7463 17.7074 43 19.5736 43 21.5C43 33.3745 33.3745 43 21.5 43C9.62555 43 0 33.3745 0 21.5C0 9.62555 9.62555 0 21.5 0ZM20.6099 10.7866C20.6099 12.6162 20.5196 14.4717 20.6185 16.2992L19.4575 17.4602C19.0581 17.8595 18.7413 18.3336 18.5252 18.8555C18.309 19.3773 18.1978 19.9365 18.1978 20.5013C18.1978 21.0661 18.309 21.6254 18.5252 22.1472C18.7413 22.669 19.0581 23.1431 19.4575 23.5425C19.8569 23.9419 20.331 24.2587 20.8528 24.4748C21.3746 24.691 21.9339 24.8022 22.4987 24.8022C23.0635 24.8022 23.6227 24.691 24.1445 24.4748C24.6664 24.2587 25.1405 23.9419 25.5399 23.5425L26.7008 22.3815C28.5284 22.4804 30.3817 22.3901 32.2135 22.3901C32.0436 24.4333 31.293 26.3854 30.0502 28.016C28.8073 29.6467 27.1241 30.8879 25.199 31.5933C23.2739 32.2987 21.1872 32.4389 19.185 31.9973C17.1829 31.5557 15.3488 30.5508 13.899 29.101C12.4492 27.6512 11.4443 25.8171 11.0027 23.815C10.5611 21.8128 10.7013 19.7261 11.4067 17.801C12.1121 15.8759 13.3533 14.1927 14.984 12.9498C16.6146 11.707 18.5667 10.9564 20.6099 10.7866ZM35.4836 0.27305C35.876 0.43576 36.2115 0.711085 36.4476 1.06427C36.6837 1.41746 36.8098 1.83267 36.8102 2.2575V6.192H40.7425C41.1677 6.19209 41.5833 6.31824 41.9367 6.55449C42.2902 6.79074 42.5657 7.12649 42.7284 7.51929C42.8911 7.9121 42.9337 8.34432 42.8508 8.76132C42.7678 9.17832 42.5631 9.56137 42.2626 9.86205L34.658 17.458C34.2549 17.8612 33.7081 18.0878 33.138 18.088H27.95L24.0198 22.0203C23.6164 22.4237 23.0692 22.6504 22.4987 22.6504C21.9281 22.6504 21.381 22.4237 20.9776 22.0203C20.5741 21.6169 20.3475 21.0697 20.3475 20.4992C20.3475 19.9286 20.5741 19.3815 20.9776 18.9781L24.9099 15.05V9.8599C24.9097 9.57722 24.9652 9.29727 25.0733 9.03607C25.1814 8.77487 25.3399 8.53756 25.5399 8.3377L33.1401 0.73745C33.4408 0.436595 33.8239 0.23168 34.2411 0.148632C34.6582 0.0655844 35.0906 0.108135 35.4836 0.2709" fill="white"/>
</svg> 