<svg width="50" height="43" viewBox="0 0 50 43" fill="none" xmlns="http://www.w3.org/2000/svg">
  <path fill-rule="evenodd" clip-rule="evenodd" d="M23.045 9.5518H10.75V12.4893H15.84V26.573H19.5275V12.4893H24.0675L28.9675 26.573H33.4075L39.33 9.5518H35.3125L31.285 22.9035H31.2L27.17 9.5518H23.045ZM0 2.41573C0 1.77504 0.263392 1.16059 0.732233 0.707552C1.20107 0.254514 1.83696 0 2.5 0H47.5C48.163 0 48.7989 0.254514 49.2678 0.707552C49.7366 1.16059 50 1.77504 50 2.41573V33.8202C50 34.4609 49.7366 35.0754 49.2678 35.5284C48.7989 35.9814 48.163 36.236 47.5 36.236H2.5C1.83696 36.236 1.20107 35.9814 0.732233 35.5284C0.263392 35.0754 0 34.4609 0 33.8202V2.41573ZM15 41.1882C15 40.1881 15.86 39.3764 16.8825 39.3764H33.1175C33.3644 39.3755 33.609 39.4216 33.8373 39.5122C34.0657 39.6029 34.2733 39.7362 34.4482 39.9045C34.6231 40.0728 34.7619 40.2729 34.8566 40.4932C34.9513 40.7135 35 40.9497 35 41.1882V43H15V41.1882Z" fill="white"/>
</svg> 