<svg width="43" height="36" viewBox="0 0 43 36" fill="none" xmlns="http://www.w3.org/2000/svg">
  <path fill-rule="evenodd" clip-rule="evenodd" d="M15.5327 0.322986C6.30744 6.27208 1.1823 13.1967 0.157269 21.0968C-1.43908 33.3948 9.51362 39.4141 15.0635 34.0062C20.6133 28.5984 17.2871 21.7328 13.2687 19.8556C9.25021 17.9784 6.7926 18.6328 7.22139 16.1245C7.65019 13.6162 13.3667 6.66451 18.3897 3.4267C18.5675 3.27455 18.6808 3.06014 18.7068 2.82706C18.7327 2.59398 18.6693 2.35973 18.5294 2.17193L17.2871 0.549338C16.748 -0.154319 16.231 -0.127256 15.5327 0.321756M39.8222 0.322986C30.5969 6.27208 25.4718 13.1967 24.4468 21.0968C22.8492 33.3948 33.8019 39.4141 39.3518 34.0062C44.9016 28.5984 41.5754 21.7328 37.5557 19.8556C33.536 17.9784 31.0797 18.6328 31.5084 16.1245C31.9372 13.6162 37.6549 6.66451 42.678 3.4267C42.8556 3.27438 42.9687 3.05989 42.9944 2.82681C43.0201 2.59374 42.9565 2.35958 42.8164 2.17193L41.5754 0.549338C41.0363 -0.154319 40.5193 -0.127256 39.8222 0.321756" fill="#0E4287"/>
</svg>