<svg width="34" height="42" viewBox="0 0 34 42" fill="none" xmlns="http://www.w3.org/2000/svg">
  <path d="M17.0009 0C18.2489 0 19.4846 0.246901 20.6376 0.726605C21.7906 1.20631 22.8382 1.90942 23.7206 2.7958C24.6031 3.68218 25.303 4.73446 25.7806 5.89257C26.2582 7.05067 26.504 8.29193 26.504 9.54545V17.1818C26.504 19.7134 25.5028 22.1414 23.7206 23.9315C21.9385 25.7216 19.5213 26.7273 17.0009 26.7273C14.4806 26.7273 12.0634 25.7216 10.2813 23.9315C8.49911 22.1414 7.4979 19.7134 7.4979 17.1818V9.54545C7.4979 7.01384 8.49911 4.58592 10.2813 2.7958C12.0634 1.00568 14.4806 0 17.0009 0ZM0 19.0909H3.82973C4.29023 22.2691 5.87454 25.1746 8.2928 27.2757C10.7111 29.3768 13.8016 30.5331 16.999 30.5331C20.1965 30.5331 23.287 29.3768 25.7053 27.2757C28.1236 25.1746 29.7079 22.2691 30.1684 19.0909H34C33.5679 22.9639 31.8383 26.5744 29.0949 29.3304C26.3516 32.0863 22.7573 33.8241 18.9016 34.2586V42H15.1003V34.2586C11.2443 33.8245 7.64954 32.0869 4.90581 29.3309C2.16207 26.575 0.432223 22.9642 0 19.0909Z" fill="white"/>
</svg>