<svg width="47" height="47" viewBox="0 0 47 47" fill="none" xmlns="http://www.w3.org/2000/svg">
  <path d="M44.3241 37.5683C44.6973 37.2776 44.9949 36.9012 45.1914 36.4708C45.3879 36.0405 45.4775 35.5691 45.4527 35.0967C45.4279 34.6243 45.2894 34.1649 45.0489 33.7575C44.8084 33.3502 44.4731 33.0069 44.0715 32.757L44.0597 15.6559L41.1224 17.6239V32.7511C40.7249 33.0005 40.3929 33.3415 40.1542 33.7456C39.9155 34.1497 39.7772 34.6051 39.7507 35.0737C39.7243 35.5423 39.8105 36.0103 40.0021 36.4387C40.1937 36.8671 40.4852 37.2434 40.8522 37.536L39.7419 39.0105C38.7544 40.2668 38.2074 41.8129 38.1851 43.4106V47H40.579C41.1541 46.9999 41.7128 46.8081 42.1666 46.4549C42.6204 46.1016 42.9434 45.6071 43.0846 45.0496L44.0568 41.1254V47H46.9941V43.4458C46.9686 41.8404 46.4177 40.2876 45.4256 39.0252L44.3241 37.5683ZM23.4985 0L0 11.7493L23.4985 26.4358L46.9971 11.7493L23.4985 0Z" fill="white"/>
  <path d="M23.4986 29.3728L8.81201 19.5916V24.6144C8.81201 27.2873 17.4477 35.2474 23.4986 35.2474C29.5495 35.2474 38.1852 27.2873 38.1852 24.6144V19.5916L23.4986 29.3728Z" fill="white"/>
</svg> 