<svg width="39" height="44" viewBox="0 0 39 44" fill="none" xmlns="http://www.w3.org/2000/svg">
  <path d="M0 2.75C0 4.2625 1.25357 5.5 2.78571 5.5H36.2143C37.7464 5.5 39 4.2625 39 2.75C39 1.2375 37.7464 0 36.2143 0H2.78571C1.25357 0 0 1.2375 0 2.75ZM6.71357 27.5H11.1429V41.25C11.1429 42.7625 12.3964 44 13.9286 44H25.0714C26.6036 44 27.8571 42.7625 27.8571 41.25V27.5H32.2864C34.7657 27.5 36.0193 24.53 34.2643 22.7975L21.4779 10.175C21.2201 9.92006 20.914 9.71781 20.577 9.57981C20.24 9.44181 19.8788 9.37078 19.5139 9.37078C19.1491 9.37078 18.7878 9.44181 18.4508 9.57981C18.1138 9.71781 17.8077 9.92006 17.55 10.175L4.76357 22.7975C3.00857 24.53 4.23429 27.5 6.71357 27.5Z" fill="white"/>
</svg> 