<svg width="34" height="37" viewBox="0 0 34 37" fill="none" xmlns="http://www.w3.org/2000/svg">
<path d="M2.38241 7.45716C2.64948 7.45716 2.84523 7.42139 3.09409 7.22501L9.05084 2.71134C9.35357 2.49822 9.51366 2.21202 9.51366 1.90908C9.51366 1.53459 9.33536 1.23165 9.03339 0.945452C8.35812 0.338809 7.14796 9.35619e-05 6.08195 9.35619e-05C5.42458 -0.00394749 4.77294 0.122953 4.16482 0.373438C3.5567 0.623924 3.00419 0.993012 2.53932 1.45931C2.07444 1.9256 1.70645 2.47983 1.45667 3.08987C1.20689 3.6999 1.0803 4.3536 1.08423 5.01308C1.08423 5.67301 1.19121 6.33293 1.36875 6.7432C1.5645 7.18923 1.956 7.45716 2.38241 7.45716ZM31.5994 7.45716C32.044 7.45716 32.3998 7.17173 32.613 6.7432C32.8088 6.3512 32.915 5.67301 32.915 5.01308C32.915 2.23029 30.6919 9.35619e-05 27.9006 9.35619e-05C26.8513 9.35619e-05 25.6426 0.338809 24.9666 0.945452C24.6639 1.23089 24.4863 1.53459 24.4863 1.90908C24.4863 2.21202 24.6464 2.49745 24.9309 2.71134L30.8885 7.22501C31.1373 7.42139 31.3331 7.45716 31.5994 7.45716ZM2.11534 36.4824C2.24434 36.6145 2.39861 36.7192 2.56889 36.79C2.73917 36.8609 2.92196 36.8966 3.10631 36.8949C3.29066 36.8931 3.47277 36.8541 3.64172 36.7801C3.81067 36.7061 3.96298 36.5986 4.08954 36.4641L6.89909 33.6631C9.82306 35.8317 13.3637 37.0014 17 37C20.7875 37 24.2731 35.7517 27.1001 33.6646L29.9105 36.4657C30.4613 37.0365 31.3331 37.0365 31.8664 36.4832C32.3824 35.9656 32.3998 35.0918 31.8482 34.5559L29.1457 31.8622C32.2628 28.6849 34.0069 24.4036 34 19.9455C34 10.5254 26.3892 2.87194 17 2.87194C7.61078 2.87194 1.07822e-05 10.5254 1.07822e-05 19.9447C-0.0049928 24.399 1.73165 28.6776 4.83688 31.8614L2.13354 34.5559C1.60016 35.091 1.60016 35.9641 2.11609 36.4816M17 33.9493C9.28225 33.9493 3.02277 27.6872 3.02277 19.9447C3.02277 12.2205 9.28225 5.94093 17 5.94093C24.6995 5.94093 30.9416 12.2205 30.9416 19.9447C30.9416 27.6872 24.6995 33.9493 17 33.9493ZM8.90896 21.9078H16.9818C17.676 21.9078 18.2269 21.3719 18.2269 20.6762V9.86547C18.2279 9.70125 18.1964 9.53848 18.1342 9.38657C18.072 9.23466 17.9804 9.09665 17.8646 8.98053C17.7489 8.86442 17.6113 8.7725 17.4599 8.71013C17.3085 8.64775 17.1462 8.61616 16.9825 8.61717C16.2883 8.61717 15.7549 9.16977 15.7549 9.86547V19.4271H8.90896C8.19727 19.4271 7.66465 19.9805 7.66465 20.6754C7.66465 21.3719 8.19727 21.9078 8.90896 21.9078Z" fill="#EB5850"/>
</svg>
