<svg width="19" height="19" viewBox="0 0 19 19" fill="none" xmlns="http://www.w3.org/2000/svg">
<path d="M0.908711 18.0913L0.559317 18.4407L0.908711 18.0913C0.739444 17.922 0.626851 17.6831 0.564931 17.2229C0.501063 16.7481 0.5 16.118 0.5 15.2105V10.4737C0.5 10.2513 0.500929 10.1249 0.510854 10.0371C0.598438 10.0272 0.724792 10.0263 0.947368 10.0263H18C18.2224 10.0263 18.3488 10.0272 18.4366 10.0372C18.4464 10.1247 18.4474 10.2511 18.4474 10.4737V15.2105C18.4474 16.118 18.4463 16.7481 18.3824 17.2229C18.3205 17.6831 18.2079 17.922 18.0387 18.0913C17.8694 18.2605 17.6305 18.3731 17.1702 18.4351C16.6955 18.4989 16.0654 18.5 15.1579 18.5H3.78947C2.88196 18.5 2.25189 18.4989 1.77714 18.4351C1.31686 18.3731 1.07798 18.2605 0.908711 18.0913ZM0.5 6.6842C0.5 5.77669 0.501063 5.14662 0.564931 4.67187C0.626851 4.21159 0.739444 3.97271 0.908711 3.80344C1.07798 3.63417 1.31686 3.52158 1.77714 3.45966C2.25189 3.39579 2.88196 3.39473 3.78947 3.39473H15.1579C16.0654 3.39473 16.6955 3.39579 17.1702 3.45966C17.6305 3.52158 17.8694 3.63417 18.0387 3.80344C18.2079 3.97271 18.3205 4.21159 18.3824 4.67187C18.4463 5.14662 18.4474 5.77669 18.4474 6.6842C18.4474 6.90678 18.4464 7.03313 18.4366 7.12072C18.3488 7.13064 18.2224 7.13157 18 7.13157H0.947368C0.724792 7.13157 0.598438 7.13064 0.510854 7.12077C0.500929 7.03303 0.5 6.9066 0.5 6.6842Z" fill="#EB5850" stroke="#EB5850"/>
<path d="M4.7373 1V3.84211V1ZM14.211 1V3.84211V1Z" fill="#EB5850"/>
<path d="M4.7373 1V3.84211M14.211 1V3.84211" stroke="#EB5850" stroke-width="2" stroke-linecap="round"/>
</svg>
