<svg width="12" height="20" viewBox="0 0 12 20" fill="none" xmlns="http://www.w3.org/2000/svg">
<path fill-rule="evenodd" clip-rule="evenodd" d="M0 0V2H1V5C1 6.32608 1.52678 7.59785 2.46447 8.53553C3.40215 9.47322 4.67392 10 6 10C4.67392 10 3.40215 10.5268 2.46447 11.4645C1.52678 12.4021 1 13.6739 1 15V18H0V20H12V18H11V15C11 13.6739 10.4732 12.4021 9.53553 11.4645C8.59785 10.5268 7.32608 10 6 10C6.65661 10 7.30679 9.87067 7.91342 9.6194C8.52004 9.36812 9.07124 8.99983 9.53553 8.53553C9.99983 8.07124 10.3681 7.52004 10.6194 6.91342C10.8707 6.30679 11 5.65661 11 5V2H12V0H0ZM3 2H9V5C9 5.79565 8.68393 6.55871 8.12132 7.12132C7.55871 7.68393 6.79565 8 6 8C5.20435 8 4.44129 7.68393 3.87868 7.12132C3.31607 6.55871 3 5.79565 3 5V2ZM3 15V18H9V15C9 14.2044 8.68393 13.4413 8.12132 12.8787C7.55871 12.3161 6.79565 12 6 12C5.20435 12 4.44129 12.3161 3.87868 12.8787C3.31607 13.4413 3 14.2044 3 15Z" fill="#EB5850"/>
</svg>
