<svg width="202" height="100" viewBox="0 0 202 100" fill="none" xmlns="http://www.w3.org/2000/svg">
  <g clip-path="url(#clip0_157_2175)">
  <path fill-rule="evenodd" clip-rule="evenodd" d="M48.6839 74.6541C45.1157 74.6541 42.1963 71.7547 42.1963 68.1386C42.1963 64.5551 45.1157 61.623 48.6839 61.623C52.252 61.623 55.1714 64.5551 55.1714 68.1386C55.1714 71.7547 52.252 74.6541 48.6839 74.6541ZM48.6839 63.5777C46.1861 63.5777 44.1426 65.6302 44.1426 68.1386C44.1426 70.6797 46.1861 72.6995 48.6839 72.6995C51.1815 72.6995 53.2252 70.6797 53.2252 68.1386C53.2252 65.6302 51.1815 63.5777 48.6839 63.5777Z" fill="#EF9926"/>
  <path fill-rule="evenodd" clip-rule="evenodd" d="M189.334 38.7865C188.101 38.7865 187.063 37.7766 187.063 36.506C187.063 35.2681 188.101 34.2256 189.334 34.2256C190.599 34.2256 191.604 35.2681 191.604 36.506C191.604 37.7766 190.599 38.7865 189.334 38.7865ZM189.334 34.8772C188.458 34.8772 187.712 35.6264 187.712 36.506C187.712 37.4182 188.458 38.1349 189.334 38.1349C190.242 38.1349 190.956 37.4182 190.956 36.506C190.956 35.6264 190.242 34.8772 189.334 34.8772Z" fill="#FFEB97"/>
  <path fill-rule="evenodd" clip-rule="evenodd" d="M70.7742 98.7299C69.3145 98.7299 68.1143 97.524 68.1143 96.0579C68.1143 94.5596 69.3145 93.3867 70.7742 93.3867C72.2339 93.3867 73.4341 94.5596 73.4341 96.0579C73.4341 97.524 72.2339 98.7299 70.7742 98.7299ZM70.7742 94.1689C69.7362 94.1689 68.8928 95.0155 68.8928 96.0579C68.8928 97.1011 69.7362 97.9477 70.7742 97.9477C71.8122 97.9477 72.6556 97.1011 72.6556 96.0579C72.6556 95.0155 71.8122 94.1689 70.7742 94.1689Z" fill="#EA3F3F"/>
  <path d="M167.374 63.0569C167.374 64.6858 166.044 65.989 164.454 65.989C162.832 65.989 161.535 64.6858 161.535 63.0569C161.535 61.4607 162.832 60.125 164.454 60.125C166.044 60.125 167.374 61.4607 167.374 63.0569Z" fill="#FFAE1F"/>
  <path d="M45.8615 30.2839C45.8615 31.5544 44.856 32.5644 43.5909 32.5644C42.3259 32.5644 41.3203 31.5544 41.3203 30.2839C41.3203 29.046 42.3259 28.0034 43.5909 28.0034C44.856 28.0034 45.8615 29.046 45.8615 30.2839Z" fill="#FFAE1F"/>
  <path d="M144.699 16.1775C144.699 17.6109 143.532 18.7837 142.105 18.7837C140.677 18.7837 139.51 17.6109 139.51 16.1775C139.51 14.7441 140.677 13.5713 142.105 13.5713C143.532 13.5713 144.699 14.7441 144.699 16.1775Z" fill="#FFD522"/>
  <path d="M11.0231 81.7893C11.0231 83.2228 9.85528 84.3955 8.42807 84.3955C7.00077 84.3955 5.83301 83.2228 5.83301 81.7893C5.83301 80.3559 7.00077 79.1831 8.42807 79.1831C9.85528 79.1831 11.0231 80.3559 11.0231 81.7893Z" fill="#FFD522"/>
  <path d="M192.999 86.7731C192.999 87.8485 192.124 88.7282 191.053 88.7282C189.983 88.7282 189.107 87.8485 189.107 86.7731C189.107 85.6985 189.983 84.8188 191.053 84.8188C192.124 84.8188 192.999 85.6985 192.999 86.7731Z" fill="#FFD522"/>
  <path d="M62.8915 54.2284C62.8915 55.8573 61.5939 57.1604 59.9721 57.1604C58.3502 57.1604 57.0527 55.8573 57.0527 54.2284C57.0527 52.5995 58.3502 51.2964 59.9721 51.2964C61.5939 51.2964 62.8915 52.5995 62.8915 54.2284Z" fill="#E54242"/>
  <path d="M125.788 1.5828C125.788 2.10404 125.366 2.56013 124.815 2.56013C124.263 2.56013 123.842 2.10404 123.842 1.5828C123.842 1.02898 124.263 0.605469 124.815 0.605469C125.366 0.605469 125.788 1.02898 125.788 1.5828Z" fill="#E54242"/>
  <path d="M22.8955 75.5013C22.8955 76.0551 22.4414 76.4786 21.9224 76.4786C21.3709 76.4786 20.9492 76.0551 20.9492 75.5013C20.9492 74.98 21.3709 74.5239 21.9224 74.5239C22.4414 74.5239 22.8955 74.98 22.8955 75.5013Z" fill="#E54242"/>
  <path d="M69.4756 69.4421C69.4756 69.996 69.0539 70.4194 68.5024 70.4194C67.9835 70.4194 67.5293 69.996 67.5293 69.4421C67.5293 68.9209 67.9835 68.4648 68.5024 68.4648C69.0539 68.4648 69.4756 68.9209 69.4756 69.4421Z" fill="#E54242"/>
  <path d="M145.998 58.6912C145.998 59.2124 145.576 59.6685 145.025 59.6685C144.505 59.6685 144.051 59.2124 144.051 58.6912C144.051 58.1374 144.505 57.7139 145.025 57.7139C145.576 57.7139 145.998 58.1374 145.998 58.6912Z" fill="#FFAE1F"/>
  <path d="M71.3906 7.41434C71.3906 7.93558 70.9364 8.39167 70.4175 8.39167C69.866 8.39167 69.4443 7.93558 69.4443 7.41434C69.4443 6.86052 69.866 6.43701 70.4175 6.43701C70.9364 6.43701 71.3906 6.86052 71.3906 7.41434Z" fill="#FFC91F"/>
  <path d="M107.947 14.1904C107.947 15.07 107.234 15.8193 106.325 15.8193C105.417 15.8193 104.703 15.07 104.703 14.1904C104.703 13.2782 105.417 12.5615 106.325 12.5615C107.234 12.5615 107.947 13.2782 107.947 14.1904Z" fill="#EF4B4B"/>
  <path d="M199.617 71.0712C199.617 71.9834 198.871 72.7001 197.995 72.7001C197.087 72.7001 196.373 71.9834 196.373 71.0712C196.373 70.1916 197.087 69.4424 197.995 69.4424C198.871 69.4424 199.617 70.1916 199.617 71.0712Z" fill="#EF4B4B"/>
  <path d="M158.063 50.7753C158.063 51.6875 157.349 52.4042 156.441 52.4042C155.533 52.4042 154.819 51.6875 154.819 50.7753C154.819 49.8957 155.533 49.1465 156.441 49.1465C157.349 49.1465 158.063 49.8957 158.063 50.7753Z" fill="#E54242"/>
  <path d="M174.834 88.1415L168.217 81.2025L161.469 84.8839L160.529 83.1572L168.573 78.7592L174.931 85.4051L185.441 75.5991L186.771 77.0326L174.834 88.1415Z" fill="#FFAE1F"/>
  <path d="M165.687 37.5484L164.844 27.9054L174.413 27.8729L171.461 17.4806L182.457 16.829L179.44 9.17329L181.873 8.22852L186.155 19.2397L174.834 19.8913L177.818 30.4791L167.665 30.5116L168.282 37.3203L165.687 37.5484Z" fill="#EF4B4B"/>
  <path d="M60.1988 34.4865L58.3498 33.9L61.5936 23.801L52.7057 19.8591L56.4684 10.4116L45.8613 7.7728L46.3154 5.8833L59.0959 9.04335L55.2034 18.8492L63.994 22.7259L60.1988 34.4865Z" fill="#FFAE1F"/>
  <path d="M14.689 62.5034L9.33674 51.1338L2.65457 60.9397L0.513672 59.4411L9.72601 45.9214L15.4026 57.8774L21.3387 51.3944L26.7883 60.4184L24.55 61.7867L20.9171 55.6947L14.689 62.5034Z" fill="#FFE669"/>
  <path d="M29.3835 35.4634C23.6744 31.6844 25.5234 23.8658 25.5882 23.54L27.5021 23.9961C27.4697 24.0613 25.9126 30.8049 30.4539 33.8345L29.3835 35.4634Z" fill="#FFAE1F"/>
  <path d="M191.897 57.3883L190.21 56.4109C193.648 50.4818 201.531 51.8826 201.855 51.9478L201.498 53.8699C201.434 53.8372 194.654 52.6644 191.897 57.3883Z" fill="#FFAE1F"/>
  <path d="M54.6193 87.0341L52.8027 86.3502C52.8027 86.2849 55.3978 79.5739 63.3126 80.4535L63.0855 82.3756C56.6629 81.6915 54.6517 86.9688 54.6193 87.0341Z" fill="#FFAE1F"/>
  <path d="M144.342 100L142.559 99.251C143.369 97.2307 143.434 95.4714 142.785 94.0061C141.78 91.8231 139.412 91.0409 139.38 91.0409L139.996 89.1841C140.126 89.2171 143.175 90.2595 144.537 93.1917C145.446 95.1459 145.381 97.4265 144.342 100Z" fill="#CC3232"/>
  <path d="M76.8391 15.6889L75.8984 13.9948C77.8122 12.9198 78.9799 11.6167 79.4017 10.0855C79.9856 7.77255 78.6556 5.62242 78.6232 5.58985L80.2775 4.54736C80.3424 4.64509 82.0615 7.38162 81.2831 10.5416C80.7316 12.6266 79.2719 14.3532 76.8391 15.6889Z" fill="#CC3232"/>
  <path d="M158.324 77.2606C150.02 75.6643 148.041 68.0411 147.943 67.7154L149.825 67.2593C149.89 67.5199 151.609 74.0028 158.681 75.3385L158.324 77.2606Z" fill="#EF4B4B"/>
  <path d="M145.316 27.1232C144.246 27.8725 156.605 26.1784 162.087 11.3882C162.541 10.1502 156.897 6.14319 155.534 7.80465C154.172 9.43352 158.129 18.425 145.316 27.1232Z" fill="#FFAE1F"/>
  <path d="M73.4336 43.6411C73.4336 43.6411 73.4985 82.1804 74.3743 83.6139C75.2502 85.0477 106.715 99.5121 107.85 99.1859L107.656 57.9427L73.4336 43.6411Z" fill="#E54242"/>
  <path d="M85.3711 89.412C85.3711 89.412 88.1604 93.5823 94.2911 93.5823V54.7171L85.3711 50.6123V89.412Z" fill="#FFAE1F"/>
  <g style="mix-blend-mode:multiply" opacity="0.2">
  <path d="M94.2911 61.2V54.7171L85.3711 50.6123V58.659C88.3228 59.6037 91.2745 60.4833 94.2911 61.2Z" fill="#FFAE1F"/>
  </g>
  <path d="M107.331 58.105L107.85 99.185C107.85 99.185 138.407 84.2974 138.699 82.7337C138.99 81.17 139.802 42.1094 139.802 42.1094L107.331 58.105Z" fill="#C13838"/>
  <path d="M121.734 92.2788C121.734 92.2788 127.086 91.6602 129.778 88.1093L130.687 49.5698L121.571 52.3389L121.734 92.2788Z" fill="#EF9926"/>
  <g style="mix-blend-mode:multiply" opacity="0.2">
  <path d="M130.427 60.6788L130.687 49.5698L121.571 52.3389L121.636 63.8714C124.589 62.8941 127.54 61.819 130.427 60.6788Z" fill="#EF9926"/>
  </g>
  <path d="M70.4166 38.2329C70.4166 38.2329 70.1571 46.9637 70.4815 48.1365C70.8384 49.3093 108.531 64.914 109.342 65.2398C109.342 65.2398 109.115 54.6521 109.082 54.2285C109.082 53.7072 70.4166 38.2329 70.4166 38.2329Z" fill="#EF4B4B"/>
  <path d="M109.083 54.2283L109.342 65.2396C109.342 65.2396 141.586 52.0782 142.072 50.4819C142.299 49.7001 143.012 39.7639 141.812 39.7965L109.083 54.2283Z" fill="#D33C3C"/>
  <path d="M109.083 54.2287L141.812 39.7967C141.812 39.7967 107.461 26.505 105.806 26.5377C104.217 26.5702 70.417 38.233 70.417 38.233L109.083 54.2287Z" fill="#E54242"/>
  <path d="M86.4736 32.727L124.328 47.5173L125.042 58.6588C125.042 58.6588 130.037 59.18 132.568 55.3684L131.951 44.1617L93.7726 30.2837C93.7726 30.2837 88.4524 30.3162 86.4736 32.727Z" fill="#FFAE1F"/>
  <path d="M117.873 30.7074C117.873 30.7074 123.225 30.6096 125.885 33.7045L92.8635 47.5174L92.701 58.2681C92.701 58.2681 85.3701 57.4536 83.2295 54.2284L83.5215 43.6407L117.873 30.7074Z" fill="#FFC91F"/>
  <path fill-rule="evenodd" clip-rule="evenodd" d="M108.012 38.2326C105.027 35.1377 117.484 3.40707 131.173 18.0996C145.672 33.6391 112.099 42.4025 108.012 38.2326ZM128.253 20.8361C119.592 9.40137 108.402 36.7015 108.953 37.4181C109.796 38.5583 138.373 34.193 128.253 20.8361Z" fill="#FFE424"/>
  <g style="mix-blend-mode:multiply" opacity="0.2">
  <path d="M132.665 19.8916C132.622 20.174 132.59 20.4671 132.568 20.7712C132.212 23.2471 131.303 25.2669 130.33 27.3845C130.135 28.3618 129.714 29.2413 129.098 30.0884C128.935 30.3816 128.741 30.6097 128.513 30.74C124.069 35.5941 113.138 37.6464 109.862 37.6138C109.18 37.7116 108.467 37.7441 107.753 37.7767C107.819 37.9505 107.904 38.1025 108.013 38.2328C111.938 42.2398 143.111 34.2909 132.665 19.8916Z" fill="#FFBB24"/>
  </g>
  <path fill-rule="evenodd" clip-rule="evenodd" d="M100.649 22.6282C110.316 18.0999 110.218 36.2457 108.11 37.1579C105.288 38.3958 90.4314 27.4171 100.649 22.6282ZM107.818 36.5714C108.239 36.3434 108.078 20.641 101.557 24.5503C93.9344 29.1437 107.17 36.995 107.818 36.5714Z" fill="#FFE424"/>
  <g style="mix-blend-mode:multiply" opacity="0.2">
  <path d="M99.578 23.2144C99.5351 23.3664 99.4913 23.5184 99.4484 23.6705C99.1243 24.9736 99.1892 26.1464 99.254 27.3844C99.1563 27.9055 99.1891 28.4268 99.3188 28.9481C99.3398 29.1218 99.3945 29.2738 99.4812 29.4041C100.713 32.6619 105.709 35.8545 107.331 36.4735C107.655 36.6689 107.99 36.8427 108.336 36.9947C108.272 37.0599 108.196 37.1142 108.109 37.1576C105.385 38.363 91.5662 28.2313 99.578 23.2144Z" fill="#FFBB24"/>
  </g>
  <path fill-rule="evenodd" clip-rule="evenodd" d="M85.0792 18.0347C98.7681 3.34211 111.224 35.0727 108.239 38.1676C104.152 42.3375 70.5794 33.5742 85.0792 18.0347ZM107.331 37.3531C107.851 36.6364 96.6589 9.33636 87.9982 20.7711C77.8778 34.128 106.488 38.5259 107.331 37.3531Z" fill="#FFE424"/>
  <g style="mix-blend-mode:multiply" opacity="0.2">
  <path d="M83.5862 19.8267C83.6295 20.1089 83.6728 20.4022 83.716 20.7062C84.0404 23.1821 84.9489 25.2019 85.9219 27.3195C86.1163 28.2968 86.5708 29.1764 87.1869 30.0234C87.3165 30.3167 87.5109 30.5447 87.7382 30.675C92.1822 35.5617 103.114 37.5814 106.39 37.5489C107.071 37.6466 107.785 37.6792 108.499 37.7117C108.434 37.9073 108.347 38.0592 108.239 38.1678C104.314 42.1749 73.1412 34.226 83.5862 19.8267Z" fill="#FFBB24"/>
  </g>
  <path fill-rule="evenodd" clip-rule="evenodd" d="M108.985 37.8419C107.687 36.832 110.834 24.2896 116.705 29.1437C122.933 34.2909 110.704 39.2101 108.985 37.8419ZM115.765 30.3165C111.937 26.4397 109.05 37.2555 109.277 37.4835C109.666 37.8745 120.209 34.8447 115.765 30.3165Z" fill="#FFE424"/>
  <g style="mix-blend-mode:multiply" opacity="0.2">
  <path d="M117.354 29.73C117.354 29.8603 117.354 29.9797 117.354 30.0884C117.354 31.0331 117.095 31.8475 116.835 32.662C116.802 33.0529 116.706 33.4113 116.51 33.737C116.468 33.8674 116.403 33.9651 116.316 34.0302C114.889 36.0826 110.866 37.3857 109.634 37.5161C109.375 37.5812 109.115 37.6355 108.855 37.679C108.898 37.7441 108.942 37.7984 108.985 37.8418C110.64 39.1775 121.993 34.6492 117.354 29.73Z" fill="#FFBB24"/>
  </g>
  <path opacity="0.5" d="M89.1656 44.585C91.598 43.3795 94.1289 42.4348 96.7238 41.7181C97.924 41.3923 97.4375 39.5028 96.2044 39.8286C93.4362 40.6105 90.7547 41.6312 88.1598 42.8909C87.0572 43.4447 88.0302 45.1062 89.1656 44.585Z" fill="#FFE424"/>
  <path opacity="0.5" d="M85.4672 46.931C85.3595 48.321 85.2518 49.7109 85.1432 51.1009C85.0784 52.3388 87.0243 52.3388 87.0891 51.1009C87.1977 49.7109 87.3054 48.321 87.414 46.931C87.5108 45.6604 85.5649 45.693 85.4672 46.931Z" fill="#FFE424"/>
  <path opacity="0.5" d="M118.197 42.5008C121.116 43.478 124.036 44.4554 126.955 45.4327C128.155 45.8236 128.642 43.9341 127.474 43.5432C124.554 42.5659 121.635 41.5885 118.716 40.6113C117.515 40.1877 117.029 42.0772 118.197 42.5008Z" fill="#FFC91F"/>
  <path opacity="0.5" d="M128.739 47.0291C128.761 48.3973 128.739 49.7764 128.674 51.1664C128.578 52.4369 130.524 52.4043 130.621 51.1664C130.686 49.7764 130.707 48.3973 130.686 47.0291C130.653 45.7585 128.707 45.7585 128.739 47.0291Z" fill="#FFC91F"/>
  <path opacity="0.5" d="M87.1543 78.8572C87.1753 80.5078 87.1863 82.1584 87.1863 83.809C87.2191 85.0466 89.165 85.0466 89.1331 83.809C89.1331 82.1584 89.1221 80.5078 89.1002 78.8572C89.1002 77.6192 87.1543 77.6192 87.1543 78.8572Z" fill="#FFC91F"/>
  <path opacity="0.5" d="M87.1543 67.4548C87.1753 70.1479 87.1972 72.8302 87.2191 75.5015C87.2511 76.772 89.1979 76.772 89.165 75.5015C89.144 72.8302 89.1221 70.1479 89.1002 67.4548C89.1002 66.1843 87.1543 66.1843 87.1543 67.4548Z" fill="#FFC91F"/>
  <path opacity="0.5" d="M127.053 63.9036C126.967 67.7911 126.934 71.6679 126.956 75.5337C126.956 76.8042 128.902 76.8042 128.902 75.5337C128.88 71.6679 128.913 67.7911 128.999 63.9036C129.031 62.6656 127.085 62.6656 127.053 63.9036Z" fill="#FFAE1F"/>
  <path opacity="0.5" d="M126.989 79.2156C126.859 80.9313 126.902 82.6362 127.119 84.3302C127.281 85.5678 129.227 85.5678 129.065 84.3302C128.848 82.6362 128.805 80.9313 128.935 79.2156C129.033 77.9776 127.086 77.9776 126.989 79.2156Z" fill="#FFAE1F"/>
  <path d="M77.3582 39.3401C79.8884 38.5582 82.3969 37.7113 84.8836 36.7991C86.0518 36.3755 85.5325 34.486 84.3651 34.9096C81.8779 35.8217 79.3694 36.6688 76.8392 37.4506C75.639 37.809 76.1256 39.6985 77.3582 39.3401Z" fill="#EF4B4B"/>
  <path d="M75.1526 54.489C75.0011 59.1367 74.9904 63.7844 75.1201 68.4322C75.1526 69.7028 77.0988 69.7028 77.0663 68.4322C76.9366 63.7844 76.9474 59.1367 77.0988 54.489C77.1312 53.2511 75.185 53.2511 75.1526 54.489Z" fill="#EF4B4B"/>
  <path d="M75.2493 71.6897C75.2061 73.2534 75.1952 74.828 75.2169 76.4134C75.2493 77.684 77.1956 77.684 77.1631 76.4134C77.1415 74.828 77.1524 73.2534 77.1956 71.6897C77.228 70.4192 75.2817 70.4192 75.2493 71.6897Z" fill="#EF4B4B"/>
  </g>
  <defs>
  <clipPath>
  <rect width="202" height="100" fill="white"/>
  </clipPath>
  </defs>
</svg>