<svg width="23" height="23" viewBox="0 0 23 23" fill="none" xmlns="http://www.w3.org/2000/svg">
<path d="M11.5 0C9.22552 0 7.00211 0.674463 5.11095 1.9381C3.21978 3.20174 1.7458 4.99779 0.87539 7.09914C0.00498277 9.20049 -0.222756 11.5128 0.220974 13.7435C0.664704 15.9743 1.75997 18.0234 3.36828 19.6317C4.97658 21.24 7.02568 22.3353 9.25646 22.779C11.4872 23.2228 13.7995 22.995 15.9009 22.1246C18.0022 21.2542 19.7983 19.7802 21.0619 17.8891C22.3255 15.9979 23 13.7745 23 11.5C22.9965 8.45109 21.7838 5.52806 19.6278 3.37215C17.4719 1.21624 14.5489 0.0035119 11.5 0ZM21.2308 11.5C21.2316 12.3974 21.1076 13.2906 20.8625 14.1538H16.6042C16.8756 12.395 16.8756 10.605 16.6042 8.84615H20.8625C21.1076 9.70944 21.2316 10.6026 21.2308 11.5ZM8.625 15.9231H14.375C13.8086 17.7792 12.8252 19.4813 11.5 20.899C10.1755 19.4808 9.19216 17.7789 8.625 15.9231ZM8.19375 14.1538C7.88996 12.3977 7.88996 10.6023 8.19375 8.84615H14.8151C15.1189 10.6023 15.1189 12.3977 14.8151 14.1538H8.19375ZM1.76924 11.5C1.76845 10.6026 1.89238 9.70944 2.13746 8.84615H6.39577C6.12442 10.605 6.12442 12.395 6.39577 14.1538H2.13746C1.89238 13.2906 1.76845 12.3974 1.76924 11.5ZM14.375 7.07692H8.625C9.19144 5.22077 10.1748 3.51873 11.5 2.10096C12.8245 3.5192 13.8078 5.22109 14.375 7.07692ZM20.1615 7.07692H16.2227C15.7263 5.25564 14.8896 3.54476 13.7569 2.03462C15.1255 2.36339 16.4068 2.98422 17.5131 3.85455C18.6193 4.72488 19.5243 5.82412 20.1659 7.07692H20.1615ZM9.24313 2.03462C8.11042 3.54476 7.27375 5.25564 6.77726 7.07692H2.83409C3.47574 5.82412 4.38069 4.72488 5.48693 3.85455C6.59316 2.98422 7.87451 2.36339 9.24313 2.03462ZM2.83409 15.9231H6.77726C7.27375 17.7444 8.11042 19.4552 9.24313 20.9654C7.87451 20.6366 6.59316 20.0158 5.48693 19.1454C4.38069 18.2751 3.47574 17.1759 2.83409 15.9231ZM13.7569 20.9654C14.8896 19.4552 15.7263 17.7444 16.2227 15.9231H20.1659C19.5243 17.1759 18.6193 18.2751 17.5131 19.1454C16.4068 20.0158 15.1255 20.6366 13.7569 20.9654Z" fill="#EB5850"/>
</svg>
